<svg width="267" height="242" viewBox="0 0 267 242" fill="none" xmlns="http://www.w3.org/2000/svg">
<path fill-rule="evenodd" clip-rule="evenodd" d="M267 72.3836C267 112.36 234.578 144.767 194.584 144.767C154.59 144.767 122.169 112.36 122.169 72.3836C122.169 32.4073 154.59 0 194.584 0C234.578 0 267 32.4073 267 72.3836ZM253.337 71.7008C253.337 104.512 226.726 131.11 193.901 131.11C161.076 131.11 134.466 104.512 134.466 71.7008C134.466 38.89 161.076 12.2916 193.901 12.2916C226.726 12.2916 253.337 38.89 253.337 71.7008ZM194.584 106.527C213.45 106.527 228.743 91.2404 228.743 72.3836C228.743 53.5269 213.45 38.2404 194.584 38.2404C175.719 38.2404 160.426 53.5269 160.426 72.3836C160.426 91.2404 175.719 106.527 194.584 106.527ZM242.406 73.0665C242.406 99.0889 221.301 120.184 195.268 120.184C169.234 120.184 148.129 99.0889 148.129 73.0665C148.129 47.0441 169.234 25.9489 195.268 25.9489C221.301 25.9489 242.406 47.0441 242.406 73.0665ZM195.268 90.1381C204.7 90.1381 212.347 82.4949 212.347 73.0665C212.347 63.6381 204.7 55.9949 195.268 55.9949C185.835 55.9949 178.189 63.6381 178.189 73.0665C178.189 82.4949 185.835 90.1381 195.268 90.1381Z" fill="#B8C9E1"/>
<path fill-rule="evenodd" clip-rule="evenodd" d="M63.9614 74.7684C37.0086 74.7691 16.5946 77.3792 16.5946 77.3792L3.94772 101.291L49.6073 98.8983C49.6073 98.8983 63.9614 74.7684 63.9614 74.7684Z" fill="#B8C9E1"/>
<path fill-rule="evenodd" clip-rule="evenodd" d="M0 49.4254L47.5387 46.934L62.6157 69.3931L16.9562 71.786L0 49.4254Z" fill="#B8C9E1"/>
<path fill-rule="evenodd" clip-rule="evenodd" d="M10.3418 72.1426C10.3418 72.1426 61.929 68.2864 109.382 68.2864C153.549 68.2864 193.582 70.8572 193.582 70.8572C197.241 72.1426 196.196 77.9269 193.582 77.9269C193.582 77.9269 153.549 75.3561 109.382 75.3561C61.929 75.3561 10.3418 79.2123 10.3418 79.2123C10.3418 79.2123 7.18506 75.3561 10.3418 72.1426Z" fill="url(#paint0_linear_340_662)"/>
<path fill-rule="evenodd" clip-rule="evenodd" d="M139.931 228.077C139.931 229.443 137.199 234.905 139.931 234.905C142.664 234.905 144.572 237.081 145.465 235.594C146.622 233.667 144.03 228.077 144.03 228.077C144.03 228.077 139.931 226.711 139.931 228.077Z" fill="#8BA3C2"/>
<path fill-rule="evenodd" clip-rule="evenodd" d="M118.937 232.966C118.937 234.331 123.361 239.761 118.937 239.003C114.512 238.244 115.015 240.489 114.123 239.003C112.966 237.075 114.123 232.174 114.123 232.174C114.123 232.174 118.937 231.6 118.937 232.966Z" fill="#8BA3C2"/>
<path fill-rule="evenodd" clip-rule="evenodd" d="M143.427 231.843C147.386 232.904 154.598 237.664 151.251 239.595L142.013 237.119L136.734 235.705C136.734 235.705 135.414 235.351 136.121 232.713C136.828 230.074 138.148 230.428 140.787 231.135C142.107 231.489 142.107 231.489 143.427 231.843Z" fill="#7789A4"/>
<path fill-rule="evenodd" clip-rule="evenodd" d="M116.752 236.4C120.851 236.4 128.355 239.131 126.316 241.863C125.622 241.863 116.752 241.863 116.752 241.863H111.286C111.286 241.863 109.92 241.863 109.92 239.131C109.92 236.4 111.286 236.4 114.019 236.4C115.385 236.4 115.385 236.4 116.752 236.4Z" fill="#7789A4"/>
<path fill-rule="evenodd" clip-rule="evenodd" d="M108.505 116.087C104.38 124.181 114.399 141.382 112.239 231.486C112.239 234.217 119.071 232.851 120.437 232.851C124.525 157.263 146.763 147.499 149.495 118.818C148.129 113.356 122.169 116.087 108.505 116.087Z" fill="#385275"/>
<mask id="mask0_340_662" style="mask-type:luminance" maskUnits="userSpaceOnUse" x="107" y="115" width="43" height="119">
<path fill-rule="evenodd" clip-rule="evenodd" d="M108.505 116.087C104.38 124.181 114.399 141.382 112.239 231.486C112.239 234.217 119.071 232.851 120.437 232.851C124.525 157.263 146.763 147.499 149.495 118.818C148.129 113.356 122.169 116.087 108.505 116.087Z" fill="white"/>
</mask>
<g mask="url(#mask0_340_662)">
<path fill-rule="evenodd" clip-rule="evenodd" d="M149.495 118.818L133.099 196.665L118.509 134.535L149.495 118.818Z" fill="#283C56"/>
</g>
<path fill-rule="evenodd" clip-rule="evenodd" d="M108.505 116.087C105.773 133.841 134.679 134.316 138.589 225.868C138.589 228.6 144.054 228.6 145.42 228.6C158.813 169.953 145.396 147.499 149.495 118.818C148.129 113.356 122.169 116.087 108.505 116.087Z" fill="#7789A4"/>
<path fill-rule="evenodd" clip-rule="evenodd" d="M177.021 68.2844C177.021 68.2844 171.755 69.6128 171.755 72.3443C171.755 75.0757 171.755 76.052 171.755 76.052C171.755 76.052 179.397 78.0753 179.397 73.6553C179.397 69.2354 177.021 68.2844 177.021 68.2844Z" fill="#F9FAFB"/>
<path fill-rule="evenodd" clip-rule="evenodd" d="M76.6496 74.0645C76.6496 74.0645 70.6335 77.956 70.9307 75.868C71.228 73.78 70.2961 72.4761 68.0657 71.5492C65.9038 70.5713 65.2119 70.6962 65.2119 69.5199C65.2119 68.3436 69.4767 68.3747 70.1607 68.2783C71.6979 68.0616 74.9743 69.5199 74.9743 69.5199L76.6496 74.0645Z" fill="white"/>
<path fill-rule="evenodd" clip-rule="evenodd" d="M147.736 56.0349C153.317 63.6265 158.513 65.0775 173.466 69.4855C175.555 73.5913 173.466 76.5802 173.466 76.5802C173.466 76.5802 158.048 79.9358 147.736 75.5086C147.736 86.4344 151.465 101.237 151.465 128.379C122.772 135.207 113.971 132.476 107.139 128.379C101.359 120.267 112.702 86.9799 107.139 68.2865C88.016 68.2865 76.6637 74.5169 76.6637 74.5169L73.5627 67.843C73.5627 67.843 100.558 48.4754 123.535 46.4348C123.535 46.4348 130.309 45.3842 134.126 46.4348C137.942 47.4854 145.424 51.7804 147.736 56.0349Z" fill="#BBC8DC"/>
<path fill-rule="evenodd" clip-rule="evenodd" d="M148.065 76.0124C144.343 74.2179 138.684 67.4816 138.684 67.4816C138.684 67.4816 144.132 80.4797 151.647 79.1139C151.491 76.5209 148.065 77.3781 148.065 76.0124Z" fill="#385275"/>
<path fill-rule="evenodd" clip-rule="evenodd" d="M139.931 39.6062C141.298 35.509 140.785 21.8517 137.199 21.8517C133.612 21.8517 127.634 21.8517 124.902 27.3146C122.169 32.7775 124.902 46.4348 124.902 46.4348H134.466C134.466 46.4348 138.565 43.7033 139.931 39.6062Z" fill="white"/>
<path fill-rule="evenodd" clip-rule="evenodd" d="M127.634 43.7033C130.367 43.7033 133.1 40.9719 133.1 35.509C133.1 30.0461 135.832 32.7775 137.199 31.4118C138.269 28.5578 137.199 24.5831 137.199 24.5831C137.199 24.5831 142.664 21.8517 139.931 19.1202C137.199 16.3888 123.535 16.3888 120.803 21.8517C118.07 27.3146 116.704 35.509 120.803 39.6062C124.902 43.7033 126.268 43.7033 127.634 43.7033Z" fill="#7789A4"/>
<defs>
<linearGradient id="paint0_linear_340_662" x1="8.76343" y1="68.2864" x2="8.76343" y2="79.2123" gradientUnits="userSpaceOnUse">
<stop stop-color="#93B0CD"/>
<stop offset="1" stop-color="#5A789F"/>
</linearGradient>
</defs>
</svg>
