<svg xmlns="http://www.w3.org/2000/svg" xmlns:xlink="http://www.w3.org/1999/xlink" version="1.1" width="1000" height="1000" viewBox="0 0 1000 1000" xml:space="preserve">
<desc>Created with Fabric.js 3.5.0</desc>
<defs>
</defs>
<rect x="0" y="0" width="100%" height="100%" fill="#ffffff"/>
<g transform="matrix(6.8633 0 0 6.8633 499.9972 499.9971)" id="533648">
<path style="stroke: none; stroke-width: 1; stroke-dasharray: none; stroke-linecap: butt; stroke-dashoffset: 0; stroke-linejoin: miter; stroke-miterlimit: 4; is-custom-font: none; font-file-url: none; fill: rgb(97,94,255); fill-rule: evenodd; opacity: 1;" vector-effect="non-scaling-stroke" transform=" translate(-125.051, -125.4999)" d="M 104.68 75.3423 C 118.85 59.4221 142.315 54.752 161.606 63.9414 C 187.237 76.1521 196.587 107.257 182.633 131.251 L 151.241 185.168 C 149.486 188.181 146.6 190.379 143.214 191.28 C 139.829 192.181 136.222 191.711 133.186 189.974 L 171.192 124.685 C 181.316 107.271 174.544 84.6984 155.962 75.8109 C 142.019 69.1429 124.974 72.474 114.674 83.9416 C 108.993 90.237 105.803 98.365 105.696 106.818 C 105.59 115.271 108.574 123.476 114.096 129.91 C 115.088 131.065 116.156 132.154 117.292 133.169 L 95.1047 171.352 C 94.237 172.844 93.0818 174.153 91.7049 175.202 C 90.3281 176.251 88.7566 177.021 87.0802 177.467 C 85.4038 177.914 83.6553 178.028 81.9345 177.803 C 80.2138 177.578 78.5545 177.019 77.0513 176.157 L 101.138 134.704 C 97.6784 129.751 95.1938 124.192 93.8154 118.321 L 79.0553 143.774 C 77.3007 146.787 74.4139 148.985 71.0287 149.886 C 67.6435 150.787 64.0366 150.317 61 148.579 L 99.1698 82.924 C 100.759 80.2278 102.604 77.689 104.68 75.3423 Z M 148.735 96.2406 C 157.928 101.513 161.103 113.237 155.784 122.362 L 119.182 185.16 C 117.427 188.173 114.54 190.371 111.155 191.272 C 107.77 192.173 104.163 191.703 101.126 189.966 L 135.112 131.5 C 132.386 130.93 129.816 129.779 127.58 128.127 C 125.345 126.475 123.497 124.36 122.165 121.93 C 120.833 119.499 120.047 116.81 119.863 114.049 C 119.679 111.288 120.101 108.52 121.099 105.936 C 122.098 103.352 123.649 101.015 125.645 99.0842 C 127.642 97.1538 130.037 95.6767 132.664 94.7549 C 135.292 93.8331 138.089 93.4885 140.864 93.745 C 143.639 94.0015 146.324 94.853 148.735 96.2406 Z M 135.422 108.043 C 134.793 108.522 134.265 109.12 133.869 109.802 H 133.867 C 133.27 110.83 132.993 112.01 133.071 113.193 C 133.149 114.377 133.579 115.511 134.306 116.452 C 135.034 117.393 136.025 118.098 137.157 118.48 C 138.288 118.861 139.507 118.9 140.661 118.593 C 141.815 118.286 142.851 117.646 143.638 116.755 C 144.426 115.863 144.929 114.759 145.085 113.583 C 145.241 112.407 145.042 111.211 144.514 110.148 C 143.986 109.084 143.152 108.199 142.117 107.606 C 141.431 107.212 140.672 106.957 139.886 106.854 C 139.1 106.751 138.301 106.803 137.535 107.007 C 136.769 107.211 136.051 107.563 135.422 108.043 Z" stroke-linecap="round"/>
</g>
</svg>