<svg width="20" height="20" viewBox="0 0 20 20" xmlns="http://www.w3.org/2000/svg">
<g id="surface1">
<path style=" stroke:none;fill-rule:evenodd;fill:rgb(38.039216%,36.862745%,100%);fill-opacity:1;" d="M 8.375 6.027344 C 9.507812 4.753906 11.386719 4.378906 12.929688 5.117188 C 14.980469 6.09375 15.726562 8.582031 14.609375 10.5 L 12.097656 14.8125 C 11.957031 15.054688 11.726562 15.230469 11.457031 15.300781 C 11.1875 15.375 10.898438 15.335938 10.65625 15.199219 L 13.695312 9.976562 C 14.503906 8.582031 13.964844 6.777344 12.476562 6.066406 C 11.363281 5.53125 9.996094 5.796875 9.175781 6.714844 C 8.71875 7.21875 8.464844 7.871094 8.457031 8.546875 C 8.445312 9.222656 8.6875 9.878906 9.128906 10.394531 C 9.207031 10.484375 9.292969 10.574219 9.382812 10.652344 L 7.609375 13.707031 C 7.539062 13.828125 7.445312 13.933594 7.335938 14.015625 C 7.226562 14.101562 7.101562 14.160156 6.964844 14.199219 C 6.832031 14.234375 6.691406 14.242188 6.554688 14.222656 C 6.417969 14.207031 6.285156 14.160156 6.164062 14.09375 L 8.089844 10.777344 C 7.8125 10.378906 7.617188 9.933594 7.503906 9.464844 L 6.324219 11.5 C 6.183594 11.742188 5.953125 11.917969 5.683594 11.992188 C 5.410156 12.0625 5.121094 12.023438 4.878906 11.886719 L 7.933594 6.632812 C 8.0625 6.417969 8.207031 6.214844 8.375 6.027344 Z M 11.898438 7.699219 C 12.632812 8.121094 12.886719 9.058594 12.460938 9.789062 L 9.535156 14.8125 C 9.394531 15.054688 9.164062 15.230469 8.890625 15.300781 C 8.621094 15.375 8.332031 15.335938 8.089844 15.199219 L 10.808594 10.519531 C 10.589844 10.472656 10.386719 10.382812 10.207031 10.25 C 10.027344 10.117188 9.878906 9.949219 9.773438 9.753906 C 9.667969 9.558594 9.605469 9.34375 9.589844 9.125 C 9.574219 8.902344 9.609375 8.679688 9.6875 8.476562 C 9.769531 8.269531 9.890625 8.082031 10.050781 7.925781 C 10.210938 7.773438 10.402344 7.652344 10.613281 7.582031 C 10.824219 7.507812 11.046875 7.480469 11.269531 7.5 C 11.492188 7.519531 11.707031 7.589844 11.898438 7.699219 Z M 10.832031 8.644531 C 10.785156 8.683594 10.742188 8.730469 10.710938 8.785156 C 10.660156 8.867188 10.640625 8.960938 10.644531 9.054688 C 10.652344 9.148438 10.6875 9.242188 10.746094 9.316406 C 10.800781 9.390625 10.882812 9.449219 10.972656 9.476562 C 11.0625 9.507812 11.160156 9.511719 11.253906 9.488281 C 11.34375 9.460938 11.429688 9.410156 11.492188 9.339844 C 11.554688 9.269531 11.59375 9.179688 11.605469 9.085938 C 11.621094 8.992188 11.601562 8.898438 11.5625 8.8125 C 11.519531 8.726562 11.453125 8.65625 11.371094 8.609375 C 11.316406 8.578125 11.253906 8.554688 11.191406 8.546875 C 11.128906 8.539062 11.0625 8.542969 11.003906 8.5625 C 10.941406 8.578125 10.882812 8.605469 10.832031 8.644531 Z M 10.832031 8.644531 "/>
</g>
</svg>
