<?xml version="1.0" encoding="UTF-8"?>
<svg width="20px" height="20px" viewBox="0 0 20 20" version="1.1" xmlns="http://www.w3.org/2000/svg" xmlns:xlink="http://www.w3.org/1999/xlink">
    <title>icons/technologies/python</title>
    <defs>
        <linearGradient x1="67.0939128%" y1="100%" x2="67.0939128%" y2="0%" id="linearGradient-1">
            <stop stop-color="#5C9FD3" offset="0%"></stop>
            <stop stop-color="#316A99" offset="100%"></stop>
        </linearGradient>
        <linearGradient x1="37.9089355%" y1="0%" x2="37.9089355%" y2="100%" id="linearGradient-2">
            <stop stop-color="#FFD53D" offset="0%"></stop>
            <stop stop-color="#FEE875" offset="100%"></stop>
        </linearGradient>
    </defs>
    <g id="icons/technologies/python" stroke="none" stroke-width="1" fill="none" fill-rule="evenodd">
        <g id="python" transform="translate(3.000000, 3.000000)" fill-rule="nonzero">
            <path d="M7.05681039,0 C6.50417073,0.00893698137 5.9528533,0.0563515451 5.40694871,0.141891892 C3.97228637,0.425675676 3.6853539,0.922297297 3.6853539,1.91554054 L3.6853539,3.19256757 L7.12854351,3.19256757 L7.12854351,3.61824324 L2.3941578,3.61824324 C1.35257104,3.58963999 0.442590059,4.30963616 0.242164297,5.32094595 C-0.0807214324,6.45772829 -0.0807214324,7.66051495 0.242164297,8.7972973 C0.334563513,9.72412797 1.09538847,10.4465049 2.03549222,10.5 L3.18322209,10.5 L3.18322209,8.93918919 C3.21194617,7.77568875 4.15880569,6.83921969 5.33521559,6.81081081 L8.7784052,6.81081081 C9.72388864,6.7982112 10.4872606,6.04321619 10.5,5.10810811 L10.5,1.91554054 C10.4438543,0.986641695 9.71453778,0.235273662 8.7784052,0.141891892 C8.20840815,0.0564536791 7.63324381,0.00904928611 7.05681039,0 Z M5.19174936,1.06418919 C5.54830331,1.06418919 5.83734741,1.35006143 5.83734741,1.7027027 C5.83734741,2.05534398 5.54830331,2.34121622 5.19174936,2.34121622 C4.8351954,2.34121622 4.54615131,2.05534398 4.54615131,1.7027027 C4.54615131,1.35006143 4.8351954,1.06418919 5.19174936,1.06418919 Z" id="path1948_1_" fill="url(#linearGradient-1)"></path>
            <path d="M10.7476695,3.5 L10.7476695,4.98602617 C10.7441578,6.15701678 9.79183182,7.10542345 8.61600203,7.10892071 L5.20533401,7.10892071 C4.26878084,7.12148785 3.51261908,7.87453759 3.5,8.80723633 L3.5,12.0623413 C3.5,12.9822622 4.28161142,13.5483675 5.20533401,13.7606569 C6.31964339,14.079781 7.50169265,14.079781 8.61600203,13.7606569 C9.46866904,13.5483675 10.321336,12.9822622 10.321336,12.0623413 L10.321336,10.7886046 L6.91066802,10.7886046 L6.91066802,10.3640257 L12.0266701,10.3640257 C13.0214482,10.3640257 13.3767261,9.65639414 13.7320041,8.66571003 C14.089332,7.53730302 14.089332,6.32672264 13.7320041,5.19831563 C13.5188373,4.20763151 13.0214482,3.5 12.0266701,3.5 L10.7476695,3.5 Z M8.82916878,11.7085255 C9.08782249,11.7085255 9.32100749,11.8636935 9.41998998,12.1016749 C9.51897247,12.3396563 9.46425954,12.6135847 9.28136375,12.7957278 C9.09846796,12.9778709 8.8234075,13.0323587 8.58444263,12.9337835 C8.34547776,12.8352084 8.18966853,12.6029831 8.18966853,12.3453939 C8.18966853,11.9936612 8.47598255,11.7085255 8.82916878,11.7085255 L8.82916878,11.7085255 Z" id="path1950_1_" fill="url(#linearGradient-2)"></path>
        </g>
    </g>
</svg>