<svg id="svg" version="1.1" xmlns="http://www.w3.org/2000/svg" xmlns:xlink="http://www.w3.org/1999/xlink" width="400" height="400" viewBox="0, 0, 400,400"><g id="svgg"><path id="path0" d="M145.703 25.376 C 134.086 26.618,116.632 30.923,108.398 34.578 C 106.975 35.210,103.385 36.826,100.132 38.299 C 98.808 38.899,96.025 40.371,93.948 41.570 C 91.872 42.769,90.093 43.750,89.997 43.750 C 89.218 43.750,75.636 53.482,72.294 56.434 C 66.357 61.680,62.980 64.951,59.961 68.381 C 58.027 70.577,56.172 72.667,55.838 73.025 C 53.720 75.293,43.750 89.291,43.750 89.997 C 43.750 90.093,42.770 91.870,41.572 93.945 C 40.374 96.020,38.510 99.681,37.430 102.081 C 36.350 104.481,35.151 107.148,34.765 108.008 C 28.527 121.906,25.217 139.442,25.217 158.594 L 25.217 172.070 26.491 179.297 C 28.650 191.536,32.037 203.446,35.516 211.024 C 36.135 212.373,37.194 214.707,37.869 216.211 C 41.395 224.062,49.377 236.510,55.767 244.122 C 102.161 299.388,182.523 308.380,239.618 264.695 L 241.541 263.224 247.591 269.274 L 253.641 275.323 252.797 277.285 C 249.449 285.067,250.383 293.796,255.359 301.230 C 257.718 304.755,322.705 369.855,325.590 371.583 C 333.505 376.325,341.596 376.509,350.195 372.145 C 354.256 370.084,368.687 356.096,371.365 351.626 C 376.480 343.087,376.554 333.854,371.575 325.590 C 369.975 322.935,368.286 321.216,329.297 282.569 C 299.230 252.765,299.676 253.145,293.088 251.749 C 287.791 250.626,279.952 251.410,277.201 253.337 C 275.772 254.338,275.293 254.014,269.208 247.919 L 263.230 241.932 264.749 240.009 C 287.491 211.213,297.610 167.795,289.823 132.422 C 282.851 100.754,267.962 75.780,244.122 55.767 C 236.510 49.377,224.062 41.395,216.211 37.869 C 214.707 37.194,212.373 36.135,211.024 35.516 C 194.085 27.741,165.331 23.278,145.703 25.376 M173.723 50.180 C 181.416 51.161,194.678 54.721,200.391 57.338 C 201.357 57.781,203.555 58.780,205.273 59.558 C 273.676 90.517,289.463 184.422,235.090 236.914 C 186.158 284.153,107.336 276.638,68.653 221.046 C 64.417 214.959,61.814 210.217,57.423 200.586 C 48.413 180.824,46.741 149.273,53.563 127.734 C 55.617 121.249,56.466 118.963,58.711 113.867 C 72.347 82.914,100.659 59.689,134.375 51.799 C 138.092 50.929,145.532 49.854,150.586 49.456 C 154.613 49.139,169.120 49.593,173.723 50.180 M86.236 130.762 C 68.643 167.295,82.832 210.329,118.750 229.381 C 141.724 241.566,172.399 240.097,193.555 225.797 L 194.727 225.005 186.794 225.003 C 178.825 225.000,177.106 224.849,168.662 223.407 C 123.957 215.774,89.567 175.545,89.465 130.762 C 89.459 127.808,89.311 125.391,89.138 125.391 C 88.964 125.391,87.658 127.808,86.236 130.762 " stroke="none" fill="#fafafa" fill-rule="evenodd"></path><path id="path1" d="M0.000 200.000 L 0.000 400.000 200.000 400.000 L 400.000 400.000 400.000 200.000 L 400.000 0.000 200.000 0.000 L 0.000 0.000 0.000 200.000 M168.750 25.013 C 183.211 26.023,198.737 29.618,209.176 34.373 C 210.072 34.781,211.758 35.489,212.922 35.945 C 235.941 44.962,264.515 70.967,275.582 92.969 C 276.176 94.150,276.967 95.557,277.338 96.094 C 277.710 96.631,278.670 98.564,279.473 100.391 C 280.276 102.217,281.506 104.941,282.207 106.445 C 289.987 123.144,294.348 150.002,292.387 169.141 C 291.275 179.986,288.509 194.650,287.066 197.346 C 286.856 197.740,286.103 199.948,285.394 202.254 C 282.175 212.715,274.002 228.309,266.531 238.243 C 265.173 240.048,264.063 241.673,264.063 241.853 C 264.062 242.670,275.534 253.544,276.136 253.297 C 285.516 249.448,294.277 250.023,301.456 254.959 C 306.405 258.360,371.294 323.757,372.794 326.854 C 376.338 334.171,376.250 343.918,372.580 350.586 C 369.925 355.408,354.869 370.372,350.353 372.676 C 343.295 376.276,334.139 376.322,326.854 372.794 C 323.749 371.290,258.356 306.398,254.944 301.434 C 250.472 294.930,249.208 285.522,251.890 278.711 L 253.120 275.586 247.292 269.757 L 241.464 263.928 239.189 265.460 C 237.938 266.303,236.738 267.196,236.523 267.445 C 235.883 268.187,227.071 273.815,223.668 275.656 C 205.075 285.714,190.139 290.214,167.512 292.575 C 154.780 293.903,131.397 291.166,119.531 286.959 C 118.564 286.616,115.840 285.700,113.477 284.923 C 111.113 284.146,107.949 282.942,106.445 282.247 C 104.941 281.553,102.393 280.394,100.781 279.672 C 82.528 271.491,63.058 255.167,49.626 236.783 C 44.865 230.266,38.155 218.563,35.945 212.922 C 35.489 211.758,34.769 210.044,34.345 209.113 C 24.263 186.983,21.555 146.675,28.708 125.236 C 29.002 124.354,29.534 122.494,29.890 121.102 C 30.715 117.872,33.137 110.650,33.822 109.375 C 34.110 108.838,34.983 106.816,35.760 104.883 C 37.275 101.116,42.141 91.580,43.534 89.648 C 43.999 89.004,44.842 87.672,45.409 86.688 C 53.246 73.077,73.077 53.246,86.688 45.409 C 87.672 44.842,89.004 43.989,89.648 43.511 C 91.392 42.220,104.286 35.742,106.698 34.946 C 107.848 34.566,109.141 34.036,109.570 33.769 C 110.537 33.168,117.687 30.762,121.102 29.890 C 122.494 29.534,124.345 29.005,125.216 28.715 C 134.348 25.668,154.095 23.989,168.750 25.013 M147.266 50.066 C 111.970 55.024,82.610 73.226,66.571 100.093 C 65.768 101.438,64.895 102.803,64.632 103.125 C 62.235 106.058,55.336 122.420,53.350 129.881 C 50.165 141.848,48.587 160.285,49.975 169.304 C 52.182 183.640,53.209 188.039,56.323 196.484 C 58.439 202.223,63.182 211.979,65.818 216.016 C 66.730 217.412,67.923 219.274,68.469 220.152 C 69.015 221.031,69.709 221.998,70.011 222.301 C 70.312 222.604,71.189 223.769,71.960 224.890 C 75.535 230.094,84.520 239.249,90.816 244.104 C 92.322 245.265,93.643 246.320,93.750 246.449 C 95.341 248.354,110.661 256.986,116.220 259.110 C 118.149 259.846,120.518 260.814,121.484 261.260 C 124.472 262.639,134.445 265.208,142.578 266.694 C 149.462 267.952,177.481 267.374,178.357 265.956 C 178.470 265.774,178.956 265.625,179.438 265.625 C 179.920 265.625,183.058 264.929,186.410 264.079 C 224.019 254.540,255.050 223.408,264.105 186.133 C 264.940 182.695,265.784 179.355,265.981 178.711 C 267.502 173.739,267.982 149.549,266.699 142.578 C 265.184 134.351,262.634 124.463,261.260 121.484 C 260.814 120.518,259.846 118.149,259.110 116.220 C 257.011 110.724,248.596 95.757,246.477 93.750 C 246.363 93.643,245.311 92.324,244.138 90.820 C 239.247 84.550,230.701 76.172,225.000 72.059 C 223.818 71.207,222.495 70.204,222.059 69.830 C 219.440 67.584,207.038 60.563,201.953 58.449 C 191.483 54.095,184.124 52.176,169.651 50.027 C 166.313 49.531,150.881 49.558,147.266 50.066 M89.847 130.199 C 89.855 143.895,94.041 161.047,100.053 172.023 C 101.098 173.930,101.953 175.627,101.953 175.793 C 101.953 175.960,103.467 178.342,105.318 181.086 C 124.389 209.376,152.322 224.288,186.426 224.387 C 191.528 224.402,195.703 224.534,195.703 224.681 C 195.703 225.088,189.532 228.726,186.284 230.232 C 177.308 234.396,173.068 235.743,163.867 237.351 C 159.039 238.195,147.247 238.303,143.164 237.540 C 134.480 235.918,129.619 234.601,124.805 232.564 C 111.312 226.857,101.477 219.259,93.295 208.221 C 88.516 201.774,87.308 199.593,83.006 189.648 C 77.124 176.051,77.133 149.887,83.025 136.914 C 83.318 136.270,84.266 134.091,85.133 132.074 C 86.917 127.918,88.971 124.507,89.493 124.829 C 89.686 124.949,89.845 127.365,89.847 130.199 " stroke="none" fill="#243c5c" fill-rule="evenodd"></path><path id="path2" d="M63.661 63.965 L 61.133 66.602 63.770 64.074 C 65.220 62.684,66.406 61.497,66.406 61.437 C 66.406 61.150,66.008 61.516,63.661 63.965 M252.539 63.281 C 253.378 64.141,254.153 64.844,254.260 64.844 C 254.368 64.844,253.769 64.141,252.930 63.281 C 252.091 62.422,251.316 61.719,251.209 61.719 C 251.101 61.719,251.700 62.422,252.539 63.281 M267.709 155.078 C 267.709 156.689,267.778 157.349,267.863 156.543 C 267.947 155.737,267.947 154.419,267.863 153.613 C 267.778 152.808,267.709 153.467,267.709 155.078 M118.343 197.363 C 119.962 199.088,120.313 199.398,120.313 199.105 C 120.313 199.042,119.478 198.207,118.457 197.249 L 116.602 195.508 118.343 197.363 M235.724 236.035 L 234.180 237.695 235.840 236.151 C 237.384 234.715,237.680 234.375,237.384 234.375 C 237.320 234.375,236.573 235.122,235.724 236.035 M285.840 251.067 C 286.753 251.150,288.247 251.150,289.160 251.067 C 290.073 250.985,289.326 250.918,287.500 250.918 C 285.674 250.918,284.927 250.985,285.840 251.067 M63.086 252.734 C 63.925 253.594,64.700 254.297,64.807 254.297 C 64.914 254.297,64.316 253.594,63.477 252.734 C 62.637 251.875,61.863 251.172,61.756 251.172 C 61.648 251.172,62.247 251.875,63.086 252.734 M306.641 259.961 C 308.457 261.787,310.032 263.281,310.139 263.281 C 310.246 263.281,308.848 261.787,307.031 259.961 C 305.215 258.135,303.640 256.641,303.533 256.641 C 303.425 256.641,304.824 258.135,306.641 259.961 M314.258 267.578 C 316.398 269.727,318.237 271.484,318.345 271.484 C 318.452 271.484,316.789 269.727,314.648 267.578 C 312.508 265.430,310.669 263.672,310.562 263.672 C 310.454 263.672,312.117 265.430,314.258 267.578 M153.613 267.863 C 154.419 267.947,155.737 267.947,156.543 267.863 C 157.349 267.778,156.689 267.709,155.078 267.709 C 153.467 267.709,152.808 267.778,153.613 267.863 M259.766 306.836 C 261.582 308.662,263.157 310.156,263.264 310.156 C 263.371 310.156,261.973 308.662,260.156 306.836 C 258.340 305.010,256.765 303.516,256.658 303.516 C 256.550 303.516,257.949 305.010,259.766 306.836 M267.383 314.453 C 269.523 316.602,271.362 318.359,271.470 318.359 C 271.577 318.359,269.914 316.602,267.773 314.453 C 265.633 312.305,263.794 310.547,263.687 310.547 C 263.579 310.547,265.242 312.305,267.383 314.453 " stroke="none" fill="#727983" fill-rule="evenodd"></path><path id="path3" d="M155.371 24.900 C 157.144 24.972,160.044 24.972,161.816 24.900 C 163.589 24.828,162.139 24.768,158.594 24.768 C 155.049 24.768,153.599 24.828,155.371 24.900 M169.238 25.269 C 169.614 25.368,170.229 25.368,170.605 25.269 C 170.981 25.171,170.674 25.091,169.922 25.091 C 169.170 25.091,168.862 25.171,169.238 25.269 M180.501 26.708 C 180.591 26.788,181.543 26.955,182.617 27.079 C 183.934 27.231,184.252 27.196,183.594 26.972 C 182.618 26.641,180.194 26.433,180.501 26.708 M223.438 41.581 C 223.438 41.689,223.965 42.050,224.609 42.383 C 225.254 42.716,225.781 42.901,225.781 42.794 C 225.781 42.686,225.254 42.325,224.609 41.992 C 223.965 41.659,223.438 41.474,223.438 41.581 M231.250 46.215 C 231.250 46.306,231.997 46.873,232.910 47.475 C 233.823 48.078,234.364 48.321,234.112 48.016 C 233.627 47.429,231.250 45.933,231.250 46.215 M137.109 51.172 C 136.324 51.423,136.286 51.487,136.914 51.496 C 137.344 51.502,138.047 51.357,138.477 51.172 C 139.472 50.744,138.445 50.744,137.109 51.172 M117.969 56.836 C 117.432 57.143,117.168 57.394,117.383 57.394 C 117.598 57.394,118.213 57.143,118.750 56.836 C 119.287 56.529,119.551 56.278,119.336 56.278 C 119.121 56.278,118.506 56.529,117.969 56.836 M248.828 59.961 C 249.557 60.713,250.241 61.328,250.349 61.328 C 250.456 61.328,249.948 60.713,249.219 59.961 C 248.490 59.209,247.806 58.594,247.698 58.594 C 247.591 58.594,248.099 59.209,248.828 59.961 M67.557 60.449 L 66.211 61.914 67.676 60.568 C 69.039 59.315,69.320 58.984,69.022 58.984 C 68.957 58.984,68.297 59.644,67.557 60.449 M107.324 61.745 C 106.519 62.171,105.859 62.606,105.859 62.713 C 105.859 62.819,106.563 62.548,107.422 62.109 C 108.281 61.671,108.984 61.228,108.984 61.125 C 108.984 60.869,108.982 60.870,107.324 61.745 M208.203 61.117 C 208.203 61.224,208.906 61.671,209.766 62.109 C 210.625 62.548,211.328 62.819,211.328 62.711 C 211.328 62.604,210.625 62.157,209.766 61.719 C 208.906 61.280,208.203 61.010,208.203 61.117 M60.135 67.871 L 58.789 69.336 60.254 67.990 C 61.617 66.737,61.898 66.406,61.600 66.406 C 61.535 66.406,60.876 67.065,60.135 67.871 M257.031 68.164 C 257.760 68.916,258.444 69.531,258.552 69.531 C 258.659 69.531,258.151 68.916,257.422 68.164 C 256.693 67.412,256.009 66.797,255.901 66.797 C 255.794 66.797,256.302 67.412,257.031 68.164 M56.767 71.582 C 56.332 72.065,55.836 72.725,55.665 73.047 C 55.335 73.669,55.425 73.584,57.008 71.777 C 57.525 71.187,57.861 70.703,57.753 70.703 C 57.646 70.703,57.202 71.099,56.767 71.582 M235.742 81.250 C 237.235 82.754,238.544 83.984,238.651 83.984 C 238.758 83.984,237.625 82.754,236.133 81.250 C 234.640 79.746,233.331 78.516,233.224 78.516 C 233.117 78.516,234.250 79.746,235.742 81.250 M81.042 81.348 L 78.711 83.789 81.152 81.458 C 83.420 79.292,83.772 78.906,83.484 78.906 C 83.423 78.906,82.325 80.005,81.042 81.348 M61.523 107.813 C 60.979 108.887,60.622 109.766,60.729 109.766 C 60.836 109.766,61.370 108.887,61.914 107.813 C 62.458 106.738,62.816 105.859,62.708 105.859 C 62.601 105.859,62.068 106.738,61.523 107.813 M56.704 118.181 C 56.050 119.617,56.174 119.924,56.882 118.618 C 57.213 118.008,57.410 117.436,57.321 117.347 C 57.231 117.257,56.954 117.633,56.704 118.181 M86.114 130.114 C 85.770 130.779,85.559 131.392,85.643 131.477 C 85.728 131.561,86.090 131.018,86.447 130.269 C 87.250 128.584,86.972 128.455,86.114 130.114 M89.560 135.547 C 89.560 136.514,89.636 136.909,89.729 136.426 C 89.822 135.942,89.822 135.151,89.729 134.668 C 89.636 134.185,89.560 134.580,89.560 135.547 M51.025 137.549 C 50.700 139.177,51.015 139.493,51.367 137.891 C 51.515 137.215,51.555 136.581,51.456 136.482 C 51.356 136.382,51.163 136.863,51.025 137.549 M80.859 144.141 C 80.616 145.043,80.494 145.858,80.587 145.952 C 80.681 146.045,80.947 145.374,81.179 144.460 C 81.411 143.546,81.533 142.731,81.451 142.649 C 81.369 142.567,81.102 143.238,80.859 144.141 M291.895 147.070 C 291.900 147.930,291.980 148.235,292.073 147.749 C 292.167 147.263,292.163 146.560,292.065 146.187 C 291.967 145.813,291.891 146.211,291.895 147.070 M292.348 158.594 C 292.348 162.354,292.407 163.892,292.478 162.012 C 292.550 160.132,292.550 157.056,292.478 155.176 C 292.407 153.296,292.348 154.834,292.348 158.594 M24.768 158.594 C 24.768 162.139,24.828 163.589,24.900 161.816 C 24.972 160.044,24.972 157.144,24.900 155.371 C 24.828 153.599,24.768 155.049,24.768 158.594 M78.647 160.156 C 78.647 161.768,78.716 162.427,78.800 161.621 C 78.884 160.815,78.884 159.497,78.800 158.691 C 78.716 157.886,78.647 158.545,78.647 160.156 M78.644 166.602 C 78.646 168.105,78.716 168.673,78.801 167.862 C 78.885 167.052,78.884 165.821,78.798 165.128 C 78.711 164.435,78.642 165.098,78.644 166.602 M25.091 169.922 C 25.091 170.674,25.171 170.981,25.269 170.605 C 25.368 170.229,25.368 169.614,25.269 169.238 C 25.171 168.862,25.091 169.170,25.091 169.922 M291.888 169.922 C 291.888 170.674,291.968 170.981,292.066 170.605 C 292.164 170.229,292.164 169.614,292.066 169.238 C 291.968 168.862,291.888 169.170,291.888 169.922 M26.601 181.478 C 26.623 182.104,26.790 183.057,26.972 183.594 C 27.196 184.252,27.231 183.934,27.079 182.617 C 26.825 180.420,26.542 179.745,26.601 181.478 M264.286 186.551 C 264.142 187.124,264.100 187.668,264.192 187.760 C 264.284 187.852,264.477 187.459,264.621 186.886 C 264.764 186.314,264.806 185.770,264.714 185.678 C 264.622 185.586,264.429 185.979,264.286 186.551 M110.156 188.794 C 110.156 188.861,110.728 189.433,111.426 190.064 L 112.695 191.211 111.548 189.941 C 110.479 188.758,110.156 188.492,110.156 188.794 M85.156 194.284 C 85.156 194.707,87.098 198.438,87.318 198.438 C 87.425 198.438,87.050 197.515,86.483 196.387 C 85.393 194.217,85.156 193.842,85.156 194.284 M120.313 199.341 C 120.313 199.408,120.884 199.979,121.582 200.611 L 122.852 201.758 121.704 200.488 C 120.635 199.305,120.313 199.039,120.313 199.341 M61.719 209.766 C 62.157 210.625,62.604 211.328,62.711 211.328 C 62.819 211.328,62.548 210.625,62.109 209.766 C 61.671 208.906,61.224 208.203,61.117 208.203 C 61.010 208.203,61.280 208.906,61.719 209.766 M97.656 213.389 C 97.656 213.448,99.019 214.810,100.684 216.416 L 103.711 219.336 100.791 216.309 C 98.079 213.497,97.656 213.103,97.656 213.389 M279.492 215.625 C 278.948 216.699,278.590 217.578,278.698 217.578 C 278.805 217.578,279.338 216.699,279.883 215.625 C 280.427 214.551,280.785 213.672,280.677 213.672 C 280.570 213.672,280.037 214.551,279.492 215.625 M41.992 224.609 C 42.325 225.254,42.686 225.781,42.794 225.781 C 42.901 225.781,42.716 225.254,42.383 224.609 C 42.050 223.965,41.689 223.438,41.581 223.438 C 41.474 223.438,41.659 223.965,41.992 224.609 M175.488 224.488 C 175.864 224.586,176.479 224.586,176.855 224.488 C 177.231 224.390,176.924 224.309,176.172 224.309 C 175.420 224.309,175.112 224.390,175.488 224.488 M274.414 225.391 C 274.081 226.035,273.896 226.563,274.003 226.563 C 274.111 226.563,274.471 226.035,274.805 225.391 C 275.138 224.746,275.323 224.219,275.215 224.219 C 275.108 224.219,274.747 224.746,274.414 225.391 M180.469 224.880 C 187.677 225.159,194.923 225.170,194.922 224.902 C 194.922 224.741,191.011 224.645,186.230 224.688 C 181.450 224.731,178.857 224.818,180.469 224.880 M239.063 232.617 C 238.114 233.584,237.425 234.375,237.533 234.375 C 237.640 234.375,238.504 233.584,239.453 232.617 C 240.402 231.650,241.090 230.859,240.983 230.859 C 240.876 230.859,240.011 231.650,239.063 232.617 M46.755 232.452 C 47.143 233.113,47.711 233.860,48.016 234.112 C 48.321 234.364,48.078 233.823,47.475 232.910 C 46.211 230.993,45.712 230.676,46.755 232.452 M81.055 235.938 C 82.547 237.441,83.856 238.672,83.963 238.672 C 84.071 238.672,82.938 237.441,81.445 235.938 C 79.953 234.434,78.644 233.203,78.537 233.203 C 78.429 233.203,79.562 234.434,81.055 235.938 M147.168 237.776 C 147.651 237.869,148.442 237.869,148.926 237.776 C 149.409 237.683,149.014 237.606,148.047 237.606 C 147.080 237.606,146.685 237.683,147.168 237.776 M156.934 237.776 C 157.417 237.869,158.208 237.869,158.691 237.776 C 159.175 237.683,158.779 237.606,157.813 237.606 C 156.846 237.606,156.450 237.683,156.934 237.776 M232.422 239.258 C 231.473 240.225,230.785 241.016,230.892 241.016 C 230.999 241.016,231.864 240.225,232.813 239.258 C 233.761 238.291,234.450 237.500,234.342 237.500 C 234.235 237.500,233.371 238.291,232.422 239.258 M269.141 247.852 C 272.466 251.182,275.274 253.906,275.381 253.906 C 275.489 253.906,272.856 251.182,269.531 247.852 C 266.206 244.521,263.398 241.797,263.291 241.797 C 263.183 241.797,265.816 244.521,269.141 247.852 M59.766 249.023 C 60.494 249.775,61.179 250.391,61.286 250.391 C 61.393 250.391,60.885 249.775,60.156 249.023 C 59.427 248.271,58.743 247.656,58.636 247.656 C 58.528 247.656,59.037 248.271,59.766 249.023 M212.402 253.739 C 210.942 254.531,211.031 254.861,212.500 254.102 C 213.145 253.768,213.672 253.412,213.672 253.310 C 213.672 253.059,213.630 253.073,212.402 253.739 M67.969 257.227 C 68.698 257.979,69.382 258.594,69.489 258.594 C 69.597 258.594,69.088 257.979,68.359 257.227 C 67.631 256.475,66.946 255.859,66.839 255.859 C 66.732 255.859,67.240 256.475,67.969 257.227 M247.266 269.336 C 250.591 272.666,253.399 275.391,253.506 275.391 C 253.614 275.391,250.981 272.666,247.656 269.336 C 244.331 266.006,241.523 263.281,241.416 263.281 C 241.308 263.281,243.941 266.006,247.266 269.336 M186.133 264.453 C 185.640 264.665,185.568 264.789,185.938 264.789 C 186.260 264.789,186.875 264.638,187.305 264.453 C 187.797 264.242,187.869 264.117,187.500 264.117 C 187.178 264.117,186.563 264.268,186.133 264.453 M334.961 288.281 C 344.197 297.520,351.842 305.078,351.950 305.078 C 352.057 305.078,344.588 297.520,335.352 288.281 C 326.115 279.043,318.470 271.484,318.363 271.484 C 318.255 271.484,325.725 279.043,334.961 288.281 M146.391 292.073 C 146.877 292.167,147.580 292.163,147.954 292.065 C 148.327 291.967,147.930 291.891,147.070 291.895 C 146.211 291.900,145.905 291.980,146.391 292.073 M169.238 292.066 C 169.614 292.164,170.229 292.164,170.605 292.066 C 170.981 291.968,170.674 291.888,169.922 291.888 C 169.170 291.888,168.862 291.968,169.238 292.066 M155.176 292.478 C 157.056 292.550,160.132 292.550,162.012 292.478 C 163.892 292.407,162.354 292.348,158.594 292.348 C 154.834 292.348,153.296 292.407,155.176 292.478 M253.698 299.194 C 254.024 299.825,254.469 300.451,254.685 300.585 C 254.902 300.719,254.710 300.202,254.259 299.438 C 253.270 297.761,252.866 297.586,253.698 299.194 M354.102 307.031 C 354.941 307.891,355.715 308.594,355.823 308.594 C 355.930 308.594,355.331 307.891,354.492 307.031 C 353.653 306.172,352.879 305.469,352.771 305.469 C 352.664 305.469,353.262 306.172,354.102 307.031 M359.180 312.109 C 360.238 313.184,361.191 314.063,361.299 314.063 C 361.406 314.063,360.628 313.184,359.570 312.109 C 358.512 311.035,357.559 310.156,357.451 310.156 C 357.344 310.156,358.122 311.035,359.180 312.109 M364.453 317.383 C 365.182 318.135,365.866 318.750,365.974 318.750 C 366.081 318.750,365.573 318.135,364.844 317.383 C 364.115 316.631,363.431 316.016,363.323 316.016 C 363.216 316.016,363.724 316.631,364.453 317.383 M288.086 335.156 C 297.322 344.395,304.967 351.953,305.075 351.953 C 305.182 351.953,297.713 344.395,288.477 335.156 C 279.240 325.918,271.595 318.359,271.488 318.359 C 271.380 318.359,278.850 325.918,288.086 335.156 M306.836 354.297 C 307.675 355.156,308.450 355.859,308.557 355.859 C 308.664 355.859,308.066 355.156,307.227 354.297 C 306.387 353.438,305.613 352.734,305.506 352.734 C 305.398 352.734,305.997 353.438,306.836 354.297 M361.910 362.207 L 354.883 369.336 362.012 362.309 C 365.933 358.444,369.141 355.236,369.141 355.180 C 369.141 354.902,368.439 355.584,361.910 362.207 M311.914 359.375 C 312.972 360.449,313.926 361.328,314.033 361.328 C 314.141 361.328,313.363 360.449,312.305 359.375 C 311.247 358.301,310.293 357.422,310.186 357.422 C 310.078 357.422,310.856 358.301,311.914 359.375 M317.188 364.648 C 317.916 365.400,318.601 366.016,318.708 366.016 C 318.815 366.016,318.307 365.400,317.578 364.648 C 316.849 363.896,316.165 363.281,316.058 363.281 C 315.950 363.281,316.459 363.896,317.188 364.648 M348.828 372.852 C 347.861 373.369,347.209 373.801,347.379 373.810 C 347.794 373.834,350.781 372.299,350.781 372.062 C 350.781 371.804,350.797 371.797,348.828 372.852 " stroke="none" fill="#949497" fill-rule="evenodd"></path><path id="path4" d="M155.584 49.509 C 157.259 49.583,159.896 49.582,161.444 49.508 C 162.991 49.434,161.621 49.374,158.398 49.375 C 155.176 49.376,153.909 49.436,155.584 49.509 M248.047 58.716 C 248.047 58.783,248.618 59.354,249.316 59.986 L 250.586 61.133 249.439 59.863 C 248.369 58.680,248.047 58.414,248.047 58.716 M256.250 66.919 C 256.250 66.986,256.821 67.558,257.520 68.189 L 258.789 69.336 257.642 68.066 C 256.572 66.883,256.250 66.617,256.250 66.919 M81.250 81.445 C 80.301 82.412,79.613 83.203,79.720 83.203 C 79.828 83.203,80.692 82.412,81.641 81.445 C 82.589 80.479,83.278 79.688,83.170 79.688 C 83.063 79.688,82.199 80.479,81.250 81.445 M71.039 93.262 C 69.915 94.618,69.439 95.313,69.632 95.313 C 69.741 95.313,70.298 94.697,70.872 93.945 C 71.936 92.550,72.065 92.023,71.039 93.262 M89.602 129.492 C 89.603 132.070,89.666 133.074,89.743 131.723 C 89.819 130.372,89.819 128.262,89.741 127.035 C 89.664 125.809,89.601 126.914,89.602 129.492 M265.491 136.914 C 265.622 137.773,265.793 138.550,265.872 138.639 C 266.168 138.975,265.947 136.883,265.607 136.133 C 265.360 135.588,265.325 135.825,265.491 136.914 M89.934 137.891 C 89.934 138.643,90.015 138.950,90.113 138.574 C 90.211 138.198,90.211 137.583,90.113 137.207 C 90.015 136.831,89.934 137.139,89.934 137.891 M292.299 149.805 C 292.302 150.879,292.378 151.272,292.468 150.678 C 292.558 150.084,292.555 149.206,292.462 148.725 C 292.370 148.245,292.296 148.730,292.299 149.805 M292.739 158.594 C 292.739 162.354,292.797 163.892,292.869 162.012 C 292.941 160.132,292.941 157.056,292.869 155.176 C 292.797 153.296,292.739 154.834,292.739 158.594 M49.376 158.594 C 49.376 161.924,49.436 163.286,49.509 161.621 C 49.582 159.956,49.582 157.231,49.509 155.566 C 49.436 153.901,49.376 155.264,49.376 158.594 M267.709 160.547 C 267.709 162.158,267.778 162.817,267.863 162.012 C 267.947 161.206,267.947 159.888,267.863 159.082 C 267.778 158.276,267.709 158.936,267.709 160.547 M292.299 167.383 C 292.302 168.457,292.378 168.850,292.468 168.256 C 292.558 167.663,292.555 166.784,292.462 166.303 C 292.370 165.823,292.296 166.309,292.299 167.383 M97.266 213.389 C 97.266 213.448,98.628 214.810,100.293 216.416 L 103.320 219.336 100.400 216.309 C 97.688 213.497,97.266 213.103,97.266 213.389 M178.418 224.494 C 178.901 224.588,179.692 224.588,180.176 224.494 C 180.659 224.401,180.264 224.325,179.297 224.325 C 178.330 224.325,177.935 224.401,178.418 224.494 M193.661 224.505 C 194.744 224.602,195.237 224.806,195.066 225.083 C 194.907 225.340,194.981 225.400,195.252 225.233 C 196.225 224.632,195.616 224.222,193.848 224.287 L 191.992 224.355 193.661 224.505 M144.629 237.769 C 145.005 237.868,145.620 237.868,145.996 237.769 C 146.372 237.671,146.064 237.591,145.313 237.591 C 144.561 237.591,144.253 237.671,144.629 237.769 M151.087 238.179 C 152.222 238.258,153.980 238.257,154.994 238.177 C 156.007 238.097,155.078 238.032,152.930 238.033 C 150.781 238.034,149.952 238.100,151.087 238.179 M268.555 246.875 C 269.394 247.734,270.168 248.438,270.276 248.438 C 270.383 248.438,269.784 247.734,268.945 246.875 C 268.106 246.016,267.332 245.313,267.224 245.313 C 267.117 245.313,267.716 246.016,268.555 246.875 M58.594 248.169 C 58.594 248.236,59.165 248.808,59.863 249.439 L 61.133 250.586 59.986 249.316 C 58.916 248.133,58.594 247.867,58.594 248.169 M271.875 250.122 C 271.875 250.189,272.446 250.761,273.145 251.392 L 274.414 252.539 273.267 251.270 C 272.197 250.086,271.875 249.820,271.875 250.122 M66.797 256.372 C 66.797 256.439,67.368 257.011,68.066 257.642 L 69.336 258.789 68.189 257.520 C 67.119 256.336,66.797 256.070,66.797 256.372 M247.070 269.531 C 250.288 272.754,253.008 275.391,253.115 275.391 C 253.223 275.391,250.678 272.754,247.461 269.531 C 244.244 266.309,241.523 263.672,241.416 263.672 C 241.309 263.672,243.853 266.309,247.070 269.531 M136.133 265.607 C 136.883 265.947,138.975 266.168,138.639 265.872 C 138.550 265.793,137.773 265.622,136.914 265.491 C 135.825 265.325,135.588 265.360,136.133 265.607 M159.082 267.863 C 159.888 267.947,161.206 267.947,162.012 267.863 C 162.817 267.778,162.158 267.709,160.547 267.709 C 158.936 267.709,158.276 267.778,159.082 267.863 M323.438 276.367 C 326.117 279.053,328.396 281.250,328.504 281.250 C 328.611 281.250,326.507 279.053,323.828 276.367 C 321.149 273.682,318.869 271.484,318.762 271.484 C 318.654 271.484,320.758 273.682,323.438 276.367 M333.979 286.816 C 338.873 291.806,339.453 292.364,339.453 292.084 C 339.453 292.028,337.036 289.611,334.082 286.713 L 328.711 281.445 333.979 286.816 M250.497 285.156 C 250.497 286.123,250.573 286.519,250.666 286.035 C 250.759 285.552,250.759 284.761,250.666 284.277 C 250.573 283.794,250.497 284.189,250.497 285.156 M250.497 288.672 C 250.497 289.639,250.573 290.034,250.666 289.551 C 250.759 289.067,250.759 288.276,250.666 287.793 C 250.573 287.310,250.497 287.705,250.497 288.672 M148.931 292.468 C 149.525 292.558,150.404 292.555,150.884 292.462 C 151.365 292.370,150.879 292.296,149.805 292.299 C 148.730 292.302,148.337 292.378,148.931 292.468 M166.309 292.463 C 166.792 292.556,167.583 292.556,168.066 292.463 C 168.550 292.370,168.154 292.294,167.188 292.294 C 166.221 292.294,165.825 292.370,166.309 292.463 M155.176 292.869 C 157.056 292.941,160.132 292.941,162.012 292.869 C 163.892 292.797,162.354 292.739,158.594 292.739 C 154.834 292.739,153.296 292.797,155.176 292.869 M345.703 298.633 C 349.028 301.963,351.836 304.688,351.944 304.688 C 352.051 304.688,349.419 301.963,346.094 298.633 C 342.769 295.303,339.961 292.578,339.853 292.578 C 339.746 292.578,342.378 295.303,345.703 298.633 M276.172 323.633 C 278.851 326.318,281.131 328.516,281.238 328.516 C 281.346 328.516,279.242 326.318,276.563 323.633 C 273.883 320.947,271.604 318.750,271.496 318.750 C 271.389 318.750,273.493 320.947,276.172 323.633 M286.713 334.082 C 291.607 339.071,292.188 339.630,292.188 339.350 C 292.188 339.293,289.771 336.876,286.816 333.979 L 281.445 328.711 286.713 334.082 M298.438 345.898 C 301.762 349.229,304.571 351.953,304.678 351.953 C 304.785 351.953,302.153 349.229,298.828 345.898 C 295.503 342.568,292.695 339.844,292.588 339.844 C 292.480 339.844,295.113 342.568,298.438 345.898 M367.166 357.324 L 365.820 358.789 367.285 357.443 C 368.649 356.190,368.930 355.859,368.631 355.859 C 368.566 355.859,367.907 356.519,367.166 357.324 M357.010 367.480 L 355.664 368.945 357.129 367.599 C 357.935 366.859,358.594 366.200,358.594 366.134 C 358.594 365.836,358.263 366.117,357.010 367.480 " stroke="none" fill="#526477" fill-rule="evenodd"></path></g></svg>